<svg id="Capa_1" data-name="Capa 1" xmlns="http://www.w3.org/2000/svg" viewBox="0 0 36 36"><path d="M31.89,19.45a5.47,5.47,0,0,0-6.57-3.28l-2.17-5.53H26.8a.79.79,0,1,1,0,1.57.55.55,0,0,0-.55.55.55.55,0,0,0,.55.55,1.89,1.89,0,1,0,0-3.77H22.34a.54.54,0,0,0-.45.24.52.52,0,0,0-.06.51l1,2.41h-8.6l-1.54-2.6h2.19V9H9.93v1.1h1.44l1.87,3.16-4.52,7.9a.52.52,0,0,0,0,.54A.56.56,0,0,0,9.2,22h4.32A4.31,4.31,0,0,1,13,23.62a4.38,4.38,0,0,1-2.65,2A4.36,4.36,0,0,1,5,22.55,4.36,4.36,0,0,1,9.2,17.07h0V16h0a5.45,5.45,0,0,0-5.28,6.86,5.47,5.47,0,0,0,5.27,4.06,5.47,5.47,0,0,0,4.73-2.72A5.64,5.64,0,0,0,14.63,22h3.89v-.55h0V22A.56.56,0,0,0,19,21.7l4.35-7.51,2.93,7.44,1-.4-1.58-4a4.36,4.36,0,0,1,5.07,6,4.36,4.36,0,1,1-7.39-4.49L22.56,18a5.46,5.46,0,0,0,4.24,8.89,5.52,5.52,0,0,0,2-.37,5.47,5.47,0,0,0,3.1-7.07ZM10.14,20.88,11.82,18a4.26,4.26,0,0,1,1.59,2.36,5.72,5.72,0,0,1,.11.57Zm4.49,0a4.9,4.9,0,0,0-.16-.85,5.38,5.38,0,0,0-2.1-3l1.49-2.6,3.71,6.49Zm3.9-.54L14.79,13.8h7.53Z"/></svg>