<svg id="Capa_1" data-name="Capa 1" xmlns="http://www.w3.org/2000/svg" viewBox="0 0 36 36"><path d="M29.93,22.16l1-.55A5.77,5.77,0,0,0,27.58,19a32.72,32.72,0,0,0-4.14-6.89l.34,0a.56.56,0,0,0,.55-.56V8.32a.55.55,0,0,0-.55-.55A2.77,2.77,0,0,0,21,9.38h-3.1a.56.56,0,0,0,0,1.11h2.74c1,3,1.6,7.81.51,9.36a1,1,0,0,1-.86.45h-3a1.38,1.38,0,0,1-1.11-.45,4,4,0,0,1-.43-2.75h0a1.63,1.63,0,0,0,.51-1.19v-.38a1.65,1.65,0,0,0-1.65-1.65H8.07a1.65,1.65,0,0,0-1.65,1.65v.38a1.61,1.61,0,0,0,.36,1c-1.25,1.23-1.67,4.46-1.67,5.81a4.53,4.53,0,0,0,.12,1.16c.18.7.6.81.83.81H7.19a3.86,3.86,0,0,0,7.67,0h5.67a.59.59,0,0,0,.33-.11L22,23.78a3.7,3.7,0,0,0-.05.59,3.87,3.87,0,1,0,4.41-3.83l.75-.55A4.62,4.62,0,0,1,29.93,22.16ZM23.22,8.94v2c-.66-.15-1.16-.55-1.16-1S22.56,9.09,23.22,8.94ZM7.52,15.53A.55.55,0,0,1,8.07,15h6.6a.55.55,0,0,1,.55.55v.38a.55.55,0,0,1-.55.54H8.07a.55.55,0,0,1-.55-.54ZM11,27a2.75,2.75,0,0,1-2.71-2.3h5.43A2.76,2.76,0,0,1,11,27Zm17.53-2.65A2.76,2.76,0,1,1,24,22.29l.34-.26a2.8,2.8,0,0,1,1.46-.42A2.76,2.76,0,0,1,28.55,24.37ZM23.7,21.12a3.79,3.79,0,0,0-.4.3l-3,2.19h-14a10.64,10.64,0,0,1,.93-5.43c.23-.39.47-.62.65-.62h6.78a4.49,4.49,0,0,0,.74,3,2.46,2.46,0,0,0,2,.85h3a2.1,2.1,0,0,0,1.76-.92c1.17-1.65.84-5.25.25-8a35.74,35.74,0,0,1,4.1,6.63Z"/><path d="M12.09,19.54H8.68v1.11h3.43a1.16,1.16,0,0,1,.77.29,1.26,1.26,0,0,1,.32.94h1.1a2.28,2.28,0,0,0-.66-1.74A2.24,2.24,0,0,0,12.09,19.54Z"/></svg>