<svg id="Capa_1" data-name="Capa 1" xmlns="http://www.w3.org/2000/svg" viewBox="0 0 37.23 36"><path d="M33.61,15.52c-1.39-.35-4.4-.89-5.2-1C27.5,13.6,22.6,9,18.27,9c-.74,0-2.05.05-3.31.1s-2.31.09-2.9.09c-3.67,0-6.07,2.89-7.23,4.28-.15.18-.32.39-.43.5-.87,0-2.88.09-3,.09l-.37,0-.16.34A10.17,10.17,0,0,0,.07,18.5c0,2.26,0,5.68,3.07,5.68H4.87a3.45,3.45,0,0,0,6.81-.13v.13H24.55a3.46,3.46,0,0,0,6.8,0c.6,0,1.69-.06,3-.06,2.29,0,2.47-1,2.74-2.58.07-.36.14-.77.25-1.25l0-.06v-.07A5.12,5.12,0,0,0,33.61,15.52ZM8.26,25.77a2.23,2.23,0,1,1,2.23-2.23A2.22,2.22,0,0,1,8.26,25.77Zm19.69,0a2.23,2.23,0,1,1,2.22-2.23A2.23,2.23,0,0,1,28,25.77Zm7.9-4.47c-.26,1.47-.28,1.55-1.53,1.55s-2.35,0-3,.07a3.45,3.45,0,0,0-6.8,0H11.68V23A3.45,3.45,0,0,0,4.86,23H3.14C1.44,23,1.31,21,1.31,18.5a9.5,9.5,0,0,1,.57-3.22c.71,0,2.18-.08,2.71-.08s.65-.3,1.19-.94c1-1.25,3.19-3.84,6.28-3.84.61,0,1.75,0,2.95-.09s2.54-.1,3.26-.1c3,0,6.43,2.63,8.21,4.17H18.33V12.2H17.1v2.2H12.87c-2.34,0-2.75-1.65-2.78-1.84l-1.21.22a3.77,3.77,0,0,0,4,2.85H27.81l.2,0s3.77.66,5.3,1a4,4,0,0,1,2.79,3.35C36,20.53,35.92,20.94,35.85,21.3Z"/></svg>